<?xml version="1.0" standalone="no"?><svg xmlns="http://www.w3.org/2000/svg" viewBox="0 0 1440 320"><path fill="#9A3B3B" fill-opacity="1" d="M0,320L21.8,277.3C43.6,235,87,149,131,117.3C174.5,85,218,107,262,112C305.5,117,349,107,393,90.7C436.4,75,480,53,524,80C567.3,107,611,181,655,197.3C698.2,213,742,171,785,138.7C829.1,107,873,85,916,96C960,107,1004,149,1047,165.3C1090.9,181,1135,171,1178,181.3C1221.8,192,1265,224,1309,240C1352.7,256,1396,256,1418,256L1440,256L1440,0L1418.2,0C1396.4,0,1353,0,1309,0C1265.5,0,1222,0,1178,0C1134.5,0,1091,0,1047,0C1003.6,0,960,0,916,0C872.7,0,829,0,785,0C741.8,0,698,0,655,0C610.9,0,567,0,524,0C480,0,436,0,393,0C349.1,0,305,0,262,0C218.2,0,175,0,131,0C87.3,0,44,0,22,0L0,0Z"></path></svg>