<?xml version="1.0" standalone="no"?><svg xmlns="http://www.w3.org/2000/svg" viewBox="0 0 1440 320"><path fill="#9A3B3B" fill-opacity="1" d="M0,64L40,80C80,96,160,128,240,133.3C320,139,400,117,480,106.7C560,96,640,96,720,101.3C800,107,880,117,960,122.7C1040,128,1120,128,1200,149.3C1280,171,1360,213,1400,234.7L1440,256L1440,320L1400,320C1360,320,1280,320,1200,320C1120,320,1040,320,960,320C880,320,800,320,720,320C640,320,560,320,480,320C400,320,320,320,240,320C160,320,80,320,40,320L0,320Z"></path></svg>