<?xml version="1.0" standalone="no"?><svg xmlns="http://www.w3.org/2000/svg" viewBox="0 0 1440 320"><path fill="#C08261" fill-opacity="1" d="M0,288L40,272C80,256,160,224,240,192C320,160,400,128,480,133.3C560,139,640,181,720,176C800,171,880,117,960,80C1040,43,1120,21,1200,53.3C1280,85,1360,171,1400,213.3L1440,256L1440,320L1400,320C1360,320,1280,320,1200,320C1120,320,1040,320,960,320C880,320,800,320,720,320C640,320,560,320,480,320C400,320,320,320,240,320C160,320,80,320,40,320L0,320Z"></path></svg>